<svg id="Layer_1" data-name="Layer 1" xmlns="http://www.w3.org/2000/svg" xmlns:xlink="http://www.w3.org/1999/xlink" viewBox="0 0 361.74 85.71"><defs><style>.cls-1{fill:url(#radial-gradient);}.cls-2{fill:url(#radial-gradient-2);}.cls-3{fill:url(#radial-gradient-3);}.cls-4{fill:#28348a;}.cls-5{fill:#fff;}</style><radialGradient id="radial-gradient" cx="-32.01" cy="62.87" r="15.5" gradientTransform="translate(51.08) scale(1.06 1)" gradientUnits="userSpaceOnUse"><stop offset="0.01" stop-color="#fff"/><stop offset="0.04" stop-color="#f1f9fe"/><stop offset="0.07" stop-color="#ddf0fc"/><stop offset="0.12" stop-color="#bde3f7"/><stop offset="0.22" stop-color="#8fcff0"/><stop offset="0.3" stop-color="#6dc1eb"/><stop offset="0.37" stop-color="#58b8e8"/><stop offset="0.42" stop-color="#51b5e7"/><stop offset="0.63" stop-color="#4680c0"/><stop offset="0.79" stop-color="#3f5ea7"/><stop offset="1" stop-color="#28348a"/></radialGradient><radialGradient id="radial-gradient-2" cx="-30.86" cy="73.65" r="14.03" xlink:href="#radial-gradient"/><radialGradient id="radial-gradient-3" cx="-39.24" cy="65.76" r="9.06" xlink:href="#radial-gradient"/></defs><title>APMG INTERNATIONAL LOGO WHITE &amp;amp; BLUE</title><path class="cls-1" d="M3.16,49h0M7.3,46.58c-.34.14-.67.28-1,.43s-.58.29-.83.43l-.7.4-.57.37-.41.3-.32.24a1.39,1.39,0,0,0-.21.17L3.16,49l.09,0,.09,0,.08,0,.09,0c.51-.19,1-.37,1.57-.52A15.53,15.53,0,0,1,6.78,48a13.83,13.83,0,0,1,1.83-.16,12.46,12.46,0,0,1,1.92.09,13.1,13.1,0,0,1,2.11.41,14.48,14.48,0,0,1,2.14.78,15.63,15.63,0,0,1,2.11,1.17,15,15,0,0,1,2,1.6,17.08,17.08,0,0,1,1.81,2,19.13,19.13,0,0,1,1.52,2.34,19.18,19.18,0,0,1,2,5.41,15.55,15.55,0,0,1,.3,2.78,15,15,0,0,1-.21,2.7,14.31,14.31,0,0,1-.64,2.48,13.06,13.06,0,0,1-1,2.17A11.91,11.91,0,0,1,19.94,75a11.29,11.29,0,0,1-3,1.78,10.09,10.09,0,0,1-2.77.66A7.44,7.44,0,0,1,12,77.32l-.09,0-.1,0-.09,0-.09,0c-.27-.07-.53-.15-.76-.23s-.45-.17-.65-.26l-.55-.27c-.16-.09-.31-.18-.44-.27L8.86,76l-.26-.19a1.31,1.31,0,0,0-.16-.13l-.07-.05h0a8.62,8.62,0,0,0,.84,1.26,8.82,8.82,0,0,0,1.18,1.19,9.11,9.11,0,0,0,1.5,1,9.26,9.26,0,0,0,1.85.78l0,0h.05l.05,0h0a11.2,11.2,0,0,0,2.28.4,12.14,12.14,0,0,0,2.54-.1,12.76,12.76,0,0,0,2.69-.67,13.07,13.07,0,0,0,2.71-1.38,14.2,14.2,0,0,0,2.55-2.14,16,16,0,0,0,2.14-2.88,17.07,17.07,0,0,0,2.27-7.44,18.38,18.38,0,0,0-.19-4.07,19.48,19.48,0,0,0-1-3.82,20.28,20.28,0,0,0-1.62-3.42,19.88,19.88,0,0,0-2.08-2.89,18.23,18.23,0,0,0-2.36-2.3,17.41,17.41,0,0,0-2.51-1.71,17,17,0,0,0-2.51-1.15,15,15,0,0,0-2.41-.67,16.43,16.43,0,0,0-2.24-.3,15.48,15.48,0,0,0-2.05,0,16.88,16.88,0,0,0-1.83.24c-.56.11-1.1.25-1.6.4l-.38.13L8,46.31l-.35.13-.34.14" transform="translate(0 0)"/><path class="cls-2" d="M35.07,70.8h0M7.29,61.6A4.81,4.81,0,0,0,5.8,62a5.55,5.55,0,0,0-1.38.88,6.51,6.51,0,0,0-1.18,1.31,7.51,7.51,0,0,0-.89,1.69,9.38,9.38,0,0,0-.33,1c-.09.34-.16.69-.22,1s-.1.72-.13,1.1a10.81,10.81,0,0,0,0,1.14,11.49,11.49,0,0,0,.09,1.18c.05.39.11.77.19,1.16s.18.78.29,1.17.23.78.38,1.17a15.41,15.41,0,0,0,1,2.31,17.21,17.21,0,0,0,1.44,2.19,18.06,18.06,0,0,0,1.8,2,16.21,16.21,0,0,0,2.16,1.73l.68.43c.24.14.47.28.71.4l.73.37.75.33c.18.07.37.15.56.21l.58.2.59.17a5.66,5.66,0,0,0,.59.15c.48.11.95.2,1.41.26s.93.1,1.39.12a12.71,12.71,0,0,0,1.38,0c.47,0,.94,0,1.41-.1A16.43,16.43,0,0,0,22.57,85a16.63,16.63,0,0,0,2.58-1,16.42,16.42,0,0,0,2.35-1.37,16.76,16.76,0,0,0,2-1.65,17.46,17.46,0,0,0,1.67-1.81,17.08,17.08,0,0,0,1.31-1.85,17.85,17.85,0,0,0,1-1.78c.27-.57.5-1.11.68-1.59s.33-.93.44-1.31.21-.72.27-1,.12-.48.15-.63,0-.23,0-.25a25.52,25.52,0,0,1-2.27,3.25,24.56,24.56,0,0,1-2.65,2.74A21.21,21.21,0,0,1,27.27,79a19,19,0,0,1-3,1.55,16.91,16.91,0,0,1-3,1,16.54,16.54,0,0,1-5.67.28,16,16,0,0,1-2.51-.53l-.05,0h0l-.05,0-.05,0a13.14,13.14,0,0,1-4-2.19,14.17,14.17,0,0,1-1.54-1.45A14,14,0,0,1,6.11,75.9c-.18-.27-.35-.55-.51-.83s-.29-.57-.43-.85-.25-.57-.35-.85-.2-.56-.29-.85-.15-.56-.22-.84-.11-.55-.15-.82a7.37,7.37,0,0,1-.08-.78,6.14,6.14,0,0,1,0-.74A7.46,7.46,0,0,1,4.22,68a7,7,0,0,1,.37-1.22,7.38,7.38,0,0,1,.54-1,5.74,5.74,0,0,1,.67-.84,4.41,4.41,0,0,1,.67-.57,3.94,3.94,0,0,1,.71-.41,3.47,3.47,0,0,1,.7-.25,3,3,0,0,1,.63-.1h.25a3.76,3.76,0,0,1,.6.1,3.52,3.52,0,0,1,.52.19,2.52,2.52,0,0,1,.43.24l.35.24.25.23a1,1,0,0,1,.18.19l.11.11,0,0h0a3.36,3.36,0,0,0-.37-1.22,3.86,3.86,0,0,0-2-1.84,3.48,3.48,0,0,0-1.42-.24H7.29" transform="translate(0 0)"/><path class="cls-3" d="M.29,71.62h0M8.35,56.7l-.54.12L7.3,57l-.5.18-.47.21-.5.25c-.16.09-.32.18-.47.28l-.44.29a4.56,4.56,0,0,0-.42.31A10.32,10.32,0,0,0,3,59.88a12.57,12.57,0,0,0-1.12,1.54A14.14,14.14,0,0,0,1.1,63a11.79,11.79,0,0,0-.55,1.57,13.27,13.27,0,0,0-.34,1.5C.13,66.56.08,67,0,67.46s0,.84,0,1.22,0,.72,0,1,0,.55.07.78.06.43.08.59,0,.29.07.38a1.54,1.54,0,0,1,0,.16A16.37,16.37,0,0,1,.36,69.4a14.71,14.71,0,0,1,.38-2.14,11.76,11.76,0,0,1,.68-2,10.66,10.66,0,0,1,1-1.79,9,9,0,0,1,2.31-2.29,7.34,7.34,0,0,1,1.42-.73,5.94,5.94,0,0,1,1.55-.37l.33,0h.33l.33,0,.33,0a5.36,5.36,0,0,1,1.88.63A6.53,6.53,0,0,1,12.51,62a7.48,7.48,0,0,1,1.2,1.79,6.92,6.92,0,0,1,.6,2.07,5.28,5.28,0,0,1-.06,1.91,4.76,4.76,0,0,1-.65,1.56,3.83,3.83,0,0,1-1,1.06,2.86,2.86,0,0,1-1.18.49l-.19,0L11,71h-.35A2.16,2.16,0,0,1,10,70.7a2.22,2.22,0,0,1-.56-.45A2.46,2.46,0,0,1,9,69.7a2.26,2.26,0,0,1-.21-.58,1.84,1.84,0,0,1,0-.39,1.06,1.06,0,0,1,.06-.28,5.77,5.77,0,0,1,.6-.75.68.68,0,0,0,.07-.32.74.74,0,0,0-.1-.37.49.49,0,0,0-.11-.2.6.6,0,0,0-.19-.16.87.87,0,0,0-.24-.1,1.26,1.26,0,0,0-.28,0H8.35l-.25.06a1.22,1.22,0,0,0-.24.1,1.49,1.49,0,0,0-.24.14,2.18,2.18,0,0,0-.48.48,2.9,2.9,0,0,0-.37.7,3.89,3.89,0,0,0-.17,1.84,4.5,4.5,0,0,0,.23,1,5.28,5.28,0,0,0,.45,1,5.94,5.94,0,0,0,.67,1,6.05,6.05,0,0,0,.89.86,3.36,3.36,0,0,0,.49.35,3.5,3.5,0,0,0,.54.29,3.57,3.57,0,0,0,.57.23,4.5,4.5,0,0,0,.6.17,5.46,5.46,0,0,0,.69.1,5.61,5.61,0,0,0,.71,0,5.51,5.51,0,0,0,.71-.08,5.65,5.65,0,0,0,.71-.17,6.32,6.32,0,0,0,1.34-.58,6.8,6.8,0,0,0,1.23-.94A7.27,7.27,0,0,0,17.5,71.9a8.26,8.26,0,0,0,.82-1.56,8.09,8.09,0,0,0,.5-1.78A9.49,9.49,0,0,0,19,66.64a11.07,11.07,0,0,0-.23-1.92,10,10,0,0,0-.54-1.78,11,11,0,0,0-.79-1.62,10.64,10.64,0,0,0-1-1.42,11,11,0,0,0-1.17-1.19,10.06,10.06,0,0,0-1.28-.92,8.71,8.71,0,0,0-1.34-.65,9.09,9.09,0,0,0-1.35-.4,8.6,8.6,0,0,0-1.33-.15,7.79,7.79,0,0,0-1.28.07H8.35" transform="translate(0 0)"/><path class="cls-4" d="M45.58,78.25H40L50.72,50.53H55.4L66,78.25H60.2L58,72.44H47.72Zm7.36-19.89-3.35,8.93h6.63Z" transform="translate(0 0)"/><path class="cls-4" d="M67.62,78.25V50.53h6.9c3,0,5.14.23,6.59,1.2a8.59,8.59,0,0,1,3.66,7.14c0,5.14-3.59,8.73-9.71,8.73H73V78.25Zm6.86-15.33c3.08,0,4.68-1.4,4.68-3.78S77.6,55.4,74.44,55.4H73v7.52Z" transform="translate(0 0)"/><path class="cls-4" d="M87.26,78.25V50.53h7.18l7,20.15,7-20.15h7.17V78.25h-5.34l.2-20.12-7,20.12H99.43l-7-20.12.23,20.12Z" transform="translate(0 0)"/><path class="cls-4" d="M146.49,64.44a13.51,13.51,0,0,1-1.32,6.2,14,14,0,0,1-13,8.15A13.81,13.81,0,0,1,121.58,74,14.45,14.45,0,0,1,118,64.21,14.08,14.08,0,0,1,122.36,54a13.78,13.78,0,0,1,10.18-4c5.92,0,10.37,3,12.75,8.58H138.7a7.91,7.91,0,0,0-6.47-3,8.83,8.83,0,0,0,.15,17.66A8.2,8.2,0,0,0,140,68.15H129.15V63.51h17.31C146.46,63.82,146.49,64.13,146.49,64.44Z" transform="translate(0 0)"/><path class="cls-4" d="M155,78.25V50.53h2.73V78.25Z" transform="translate(0 0)"/><path class="cls-4" d="M164.63,57.31v2.38a8.24,8.24,0,0,1,6.59-2.81c3.12,0,5.58,1.21,6.94,3.31,1.21,1.84,1.37,4.06,1.37,7.1v11h-2.65V66.51c0-4.79-1.68-7.06-6-7.06a5.84,5.84,0,0,0-5.38,2.85c-.9,1.56-.9,3.35-.9,5.77V78.25H162V57.31Z" transform="translate(0 0)"/><path class="cls-4" d="M185.22,60h-4V57.31h4V50.53h2.69v6.78h4V60h-4V78.25h-2.69Z" transform="translate(0 0)"/><path class="cls-4" d="M195.27,68.62a7.84,7.84,0,0,0,8,7.64,7.75,7.75,0,0,0,7.18-4.64h3c-2,4.68-5.58,7.21-10.14,7.21a10.94,10.94,0,0,1-10.87-11.07,10.64,10.64,0,0,1,11-11c6.2,0,10.68,4.68,10.68,11.7v.2Zm7.84-9.36c-4,0-7.1,2.65-7.76,7.09h15.87C210.21,61.68,207.48,59.26,203.11,59.26Z" transform="translate(0 0)"/><path class="cls-4" d="M216.83,78.25V57.31h2.53v2.42A5.75,5.75,0,0,1,224.28,57v2.92c-3.67.31-4.72,2.18-4.72,5.69V78.25Z" transform="translate(0 0)"/><path class="cls-4" d="M229.67,57.31v2.38a8.24,8.24,0,0,1,6.59-2.81c3.12,0,5.57,1.21,6.94,3.31,1.21,1.84,1.36,4.06,1.36,7.1v11h-2.65V66.51c0-4.79-1.67-7.06-6-7.06a5.84,5.84,0,0,0-5.38,2.85c-.9,1.56-.9,3.35-.9,5.77V78.25h-2.61V57.31Z" transform="translate(0 0)"/><path class="cls-4" d="M258.09,78.79a10.61,10.61,0,0,1-10.72-10.92,10.74,10.74,0,0,1,10.95-11,9.39,9.39,0,0,1,7.8,3.82V57.31h2.61V78.25h-2.61V74.93A9.75,9.75,0,0,1,258.09,78.79Zm.15-19.45a8.3,8.3,0,0,0-8.1,8.65,8.16,8.16,0,0,0,8,8.31c4.05,0,7.95-3.67,7.95-8.66C266.12,63.08,262.26,59.34,258.24,59.34Z" transform="translate(0 0)"/><path class="cls-4" d="M274.42,60h-4V57.31h4V50.53h2.69v6.78h4V60h-4V78.25h-2.69Z" transform="translate(0 0)"/><path class="cls-4" d="M282.88,54.85V50.53h2.69v4.32Zm0,2.46h2.69V78.25h-2.69Z" transform="translate(0 0)"/><path class="cls-4" d="M299,56.65A11.1,11.1,0,1,1,288.38,67.8,10.94,10.94,0,0,1,299,56.65Zm.19,19.61c4.41,0,8-3.59,8-8.54s-3.55-8.5-8.19-8.5c-4,0-7.8,3.43-7.8,8.54C291.18,72.59,294.65,76.26,299.21,76.26Z" transform="translate(0 0)"/><path class="cls-4" d="M315.35,57.31v2.38a8.24,8.24,0,0,1,6.59-2.81c3.12,0,5.58,1.21,6.94,3.31,1.21,1.84,1.36,4.06,1.36,7.1v11h-2.65V66.51c0-4.79-1.67-7.06-6-7.06a5.84,5.84,0,0,0-5.38,2.85c-.9,1.56-.9,3.35-.9,5.77V78.25h-2.61V57.31Z" transform="translate(0 0)"/><path class="cls-4" d="M343.77,78.79a10.62,10.62,0,0,1-10.72-10.92,10.75,10.75,0,0,1,11-11,9.38,9.38,0,0,1,7.79,3.82V57.31h2.61V78.25H351.8V74.93A9.74,9.74,0,0,1,343.77,78.79Zm.16-19.45A8.3,8.3,0,0,0,335.82,68a8.16,8.16,0,0,0,8,8.31c4,0,7.95-3.67,7.95-8.66C351.8,63.08,347.94,59.34,343.93,59.34Z" transform="translate(0 0)"/><path class="cls-4" d="M358.31,50.53H361V78.25h-2.69Z" transform="translate(0 0)"/><path class="cls-5" d="M3.9,3.63h0M8,1.2c-.35.14-.67.28-1,.43s-.58.29-.84.43-.48.27-.69.41L5,2.84c-.16.1-.29.2-.41.29l-.32.24L4,3.54a.61.61,0,0,1-.12.09L4,3.6l.08,0,.09,0,.09,0c.51-.19,1-.37,1.57-.52s1.12-.27,1.7-.37a13.83,13.83,0,0,1,1.83-.16,12.46,12.46,0,0,1,1.92.09,13.1,13.1,0,0,1,2.11.41,14.48,14.48,0,0,1,2.14.78A14.67,14.67,0,0,1,17.63,4.9a15.58,15.58,0,0,1,2,1.59,16.4,16.4,0,0,1,1.81,2A18.28,18.28,0,0,1,23,10.81a19.18,19.18,0,0,1,2,5.41,15.66,15.66,0,0,1,.3,2.79A14.88,14.88,0,0,1,25,21.7a14.08,14.08,0,0,1-.64,2.48,13.93,13.93,0,0,1-1,2.17,11.91,11.91,0,0,1-2.68,3.26,11.29,11.29,0,0,1-3,1.78,10.18,10.18,0,0,1-2.77.66,7.44,7.44,0,0,1-2.21-.11l-.09,0-.1,0-.09,0-.09,0c-.27-.07-.53-.15-.76-.23a6.76,6.76,0,0,1-.65-.26l-.55-.27-.44-.26-.34-.24-.26-.19-.16-.13-.07-.05h0A8.62,8.62,0,0,0,10,31.48a8.88,8.88,0,0,0,1.18,1.2,9.72,9.72,0,0,0,1.5,1,9.28,9.28,0,0,0,1.85.79h.1l.05,0h0A11.2,11.2,0,0,0,17,35a12.84,12.84,0,0,0,2.54-.09,13.44,13.44,0,0,0,2.69-.68,13.07,13.07,0,0,0,2.71-1.38,13.8,13.8,0,0,0,2.54-2.14,15.54,15.54,0,0,0,2.15-2.88,17.07,17.07,0,0,0,2.27-7.44,18.29,18.29,0,0,0-.19-4.06,19.4,19.4,0,0,0-1-3.83A20.27,20.27,0,0,0,27,6.15a18.23,18.23,0,0,0-2.36-2.3,17.41,17.41,0,0,0-2.51-1.71A18.1,18.1,0,0,0,19.6,1,15,15,0,0,0,17.19.32,16.64,16.64,0,0,0,15,0a17.39,17.39,0,0,0-2,0,16.88,16.88,0,0,0-1.83.24c-.56.11-1.1.25-1.6.4L9.09.81,8.73.93l-.35.13L8,1.2" transform="translate(0 0)"/><path class="cls-5" d="M35.81,25.42h0M8,16.22a4.74,4.74,0,0,0-1.49.38,5.79,5.79,0,0,0-1.39.88A6.78,6.78,0,0,0,4,18.79a7.51,7.51,0,0,0-.89,1.69,9.38,9.38,0,0,0-.33,1c-.09.34-.16.69-.22,1.05s-.1.73-.13,1.1a11,11,0,0,0,0,1.15,11.52,11.52,0,0,0,.09,1.17c0,.39.11.77.19,1.16s.18.78.29,1.17.23.78.38,1.17a15.41,15.41,0,0,0,1,2.31,16.53,16.53,0,0,0,1.44,2.19,18.06,18.06,0,0,0,1.8,2,16.21,16.21,0,0,0,2.16,1.73l.68.43c.24.14.47.28.71.4l.73.37c.24.12.49.22.75.33l.56.22.58.19.59.18.59.14c.48.11.95.2,1.41.26s.93.1,1.39.13.92,0,1.38,0,.94,0,1.41-.1a16.43,16.43,0,0,0,2.74-.56,15.68,15.68,0,0,0,2.58-1,16.42,16.42,0,0,0,2.35-1.37,16.76,16.76,0,0,0,2-1.64,16.61,16.61,0,0,0,1.68-1.82A18.59,18.59,0,0,0,33.25,32a20.14,20.14,0,0,0,1-1.78c.27-.57.5-1.1.68-1.59s.33-.93.44-1.31.21-.72.27-1,.12-.48.15-.63,0-.23,0-.24a25.18,25.18,0,0,1-2.28,3.24,23.62,23.62,0,0,1-2.64,2.74A21.21,21.21,0,0,1,28,33.57a19.49,19.49,0,0,1-3,1.55,16.91,16.91,0,0,1-3,1,16.54,16.54,0,0,1-5.67.28,16,16,0,0,1-2.51-.53l-.05,0h0l-.05,0-.05,0a13,13,0,0,1-2.15-.94,13.32,13.32,0,0,1-1.85-1.25,14.17,14.17,0,0,1-1.54-1.45,14,14,0,0,1-1.22-1.59c-.18-.27-.35-.55-.51-.83s-.3-.57-.43-.85-.25-.57-.35-.85a8.51,8.51,0,0,1-.29-.85c-.08-.28-.16-.56-.22-.84s-.11-.55-.15-.82a7.37,7.37,0,0,1-.08-.78c0-.25,0-.5,0-.73A8.42,8.42,0,0,1,5,22.59a7.25,7.25,0,0,1,.37-1.22,7.38,7.38,0,0,1,.54-1.05,5.64,5.64,0,0,1,.67-.83,4,4,0,0,1,.67-.58,4.65,4.65,0,0,1,.71-.41,4.22,4.22,0,0,1,.7-.25,2.45,2.45,0,0,1,.63-.09H9.5a2.89,2.89,0,0,1,.6.09,3.52,3.52,0,0,1,.52.19,2.52,2.52,0,0,1,.43.24,3.53,3.53,0,0,1,.35.25l.25.22a1.48,1.48,0,0,1,.18.19,1.11,1.11,0,0,0,.11.11l0,.05h0a3.56,3.56,0,0,0-.37-1.22,4.06,4.06,0,0,0-.82-1.09,3.89,3.89,0,0,0-1.18-.75,3.48,3.48,0,0,0-1.42-.24H8" transform="translate(0 0)"/><path class="cls-5" d="M1,26.25H1M9.09,11.33l-.54.11L8,11.59l-.5.17L7.06,12c-.17.08-.33.17-.49.26a4.39,4.39,0,0,0-.47.27l-.44.29-.43.31a10.79,10.79,0,0,0-1.46,1.4A12.57,12.57,0,0,0,2.65,16a13.36,13.36,0,0,0-.81,1.6,11.79,11.79,0,0,0-.55,1.57A13.27,13.27,0,0,0,1,20.71c-.08.48-.13.93-.17,1.37s0,.84,0,1.22,0,.72,0,1,0,.55.07.78.06.43.08.59,0,.29.07.38a1.19,1.19,0,0,1,0,.17A16.46,16.46,0,0,1,1.1,24a15,15,0,0,1,.38-2.14,11.76,11.76,0,0,1,.68-2,10.19,10.19,0,0,1,1-1.78,8.21,8.21,0,0,1,1.06-1.27,8.65,8.65,0,0,1,1.25-1,7.34,7.34,0,0,1,1.42-.73,5.94,5.94,0,0,1,1.55-.37l.33,0h.33l.33,0,.33,0a5.36,5.36,0,0,1,1.88.63,6.53,6.53,0,0,1,1.62,1.3,7.48,7.48,0,0,1,1.2,1.79,6.92,6.92,0,0,1,.6,2.07A5.28,5.28,0,0,1,15,22.43,4.76,4.76,0,0,1,14.34,24a3.83,3.83,0,0,1-1,1.06,2.73,2.73,0,0,1-1.18.49l-.19,0h-.36l-.17,0a2,2,0,0,1-.73-.24,2.42,2.42,0,0,1-.56-.44,2.77,2.77,0,0,1-.38-.56,2.26,2.26,0,0,1-.21-.58,1.81,1.81,0,0,1,0-.39,1.06,1.06,0,0,1,.06-.28,5.77,5.77,0,0,1,.6-.75.68.68,0,0,0,.07-.32.74.74,0,0,0-.1-.37.49.49,0,0,0-.11-.2.6.6,0,0,0-.19-.16.87.87,0,0,0-.24-.1,1.25,1.25,0,0,0-.29-.05.93.93,0,0,0-.23,0,1.31,1.31,0,0,0-.49.15,1.49,1.49,0,0,0-.24.14,2,2,0,0,0-.48.49,2.66,2.66,0,0,0-.37.69,3.89,3.89,0,0,0-.17,1.84,4.91,4.91,0,0,0,.22,1.05A6.44,6.44,0,0,0,8,26.55a6.3,6.3,0,0,0,.67,1,6.05,6.05,0,0,0,.89.86,3.36,3.36,0,0,0,.49.35,4.68,4.68,0,0,0,.54.3,4.82,4.82,0,0,0,.57.22,4.5,4.5,0,0,0,.6.17,5.46,5.46,0,0,0,.69.1,5.61,5.61,0,0,0,.71,0,5.51,5.51,0,0,0,.71-.08,5.65,5.65,0,0,0,.71-.17,6,6,0,0,0,1.33-.58,6.54,6.54,0,0,0,1.24-.94,7.27,7.27,0,0,0,1.07-1.26A8.26,8.26,0,0,0,19.06,25a7.79,7.79,0,0,0,.5-1.78,9.44,9.44,0,0,0,.13-1.92,11.07,11.07,0,0,0-.23-1.92,10.22,10.22,0,0,0-.54-1.78,10.6,10.6,0,0,0-.8-1.62,10.33,10.33,0,0,0-1-1.42A11,11,0,0,0,16,13.33a10.06,10.06,0,0,0-1.28-.92,8.71,8.71,0,0,0-1.34-.65A8,8,0,0,0,12,11.37a8.62,8.62,0,0,0-1.33-.16,7.79,7.79,0,0,0-1.28.07H9.16l-.07,0" transform="translate(0 0)"/><path class="cls-5" d="M46.31,32.87H40.7L51.46,5.15h4.68l10.6,27.72H60.93l-2.18-5.81H48.46ZM53.68,13l-3.35,8.93H57Z" transform="translate(0 0)"/><path class="cls-5" d="M68.36,32.87V5.15h6.9c3,0,5.14.23,6.58,1.21a8.56,8.56,0,0,1,3.67,7.13c0,5.15-3.59,8.73-9.71,8.73h-2V32.87Zm6.86-15.33c3.08,0,4.68-1.4,4.68-3.78S78.34,10,75.18,10H73.77v7.52Z" transform="translate(0 0)"/><path class="cls-5" d="M88,32.87V5.15h7.18l7,20.15,7-20.15h7.17V32.87h-5.34l.2-20.12-7,20.12h-4.09l-7-20.12.23,20.12Z" transform="translate(0 0)"/><path class="cls-5" d="M147.23,19.07a13.5,13.5,0,0,1-1.32,6.19,14,14,0,0,1-13,8.15,13.82,13.82,0,0,1-10.61-4.75,14.49,14.49,0,0,1-3.62-9.83,14.08,14.08,0,0,1,4.4-10.21,13.78,13.78,0,0,1,10.18-4c5.92,0,10.37,3,12.75,8.58h-6.59a7.91,7.91,0,0,0-6.47-3,8.61,8.61,0,0,0-8.5,8.81,8.63,8.63,0,0,0,8.65,8.85,8.21,8.21,0,0,0,7.64-5.07H129.89V18.13H147.2C147.2,18.44,147.23,18.75,147.23,19.07Z" transform="translate(0 0)"/><path class="cls-5" d="M155.71,32.87V5.15h2.72V32.87Z" transform="translate(0 0)"/><path class="cls-5" d="M165.37,11.93v2.38A8.24,8.24,0,0,1,172,11.5c3.12,0,5.58,1.21,6.94,3.32,1.21,1.83,1.37,4.05,1.37,7.09v11h-2.66V21.13c0-4.79-1.67-7.06-6-7.06a5.84,5.84,0,0,0-5.38,2.85c-.9,1.56-.9,3.35-.9,5.77V32.87h-2.61V11.93Z" transform="translate(0 0)"/><path class="cls-5" d="M186,14.62h-4V11.93h4V5.15h2.69v6.78h4v2.69h-4V32.87H186Z" transform="translate(0 0)"/><path class="cls-5" d="M196,23.24a7.83,7.83,0,0,0,8,7.64,7.75,7.75,0,0,0,7.18-4.64h3c-1.95,4.68-5.58,7.21-10.14,7.21a10.94,10.94,0,0,1-10.88-11.07,10.64,10.64,0,0,1,11-11c6.2,0,10.68,4.67,10.68,11.69v.2Zm7.84-9.36c-4,0-7.1,2.65-7.76,7.1H212C210.94,16.3,208.22,13.88,203.85,13.88Z" transform="translate(0 0)"/><path class="cls-5" d="M217.57,32.87V11.93h2.53v2.42A5.75,5.75,0,0,1,225,11.62v2.92c-3.66.31-4.71,2.19-4.71,5.69V32.87Z" transform="translate(0 0)"/><path class="cls-5" d="M230.41,11.93v2.38A8.24,8.24,0,0,1,237,11.5c3.12,0,5.57,1.21,6.94,3.32,1.21,1.83,1.36,4.05,1.36,7.09v11h-2.65V21.13c0-4.79-1.67-7.06-6-7.06a5.84,5.84,0,0,0-5.38,2.85c-.9,1.56-.9,3.35-.9,5.77V32.87H227.8V11.93Z" transform="translate(0 0)"/><path class="cls-5" d="M258.83,33.41A10.61,10.61,0,0,1,248.11,22.5a10.75,10.75,0,0,1,10.95-11,9.39,9.39,0,0,1,7.8,3.82V11.93h2.61V32.87h-2.61V29.55A9.75,9.75,0,0,1,258.83,33.41ZM259,14a8.31,8.31,0,0,0-8.1,8.65,8.16,8.16,0,0,0,8,8.31c4,0,7.95-3.67,7.95-8.66C266.86,17.7,263,14,259,14Z" transform="translate(0 0)"/><path class="cls-5" d="M275.16,14.62h-4V11.93h4V5.15h2.69v6.78h4v2.69h-4V32.87h-2.69Z" transform="translate(0 0)"/><path class="cls-5" d="M283.62,9.47V5.15h2.69V9.47Zm0,2.46h2.69V32.87h-2.69Z" transform="translate(0 0)"/><path class="cls-5" d="M299.76,11.27a10.94,10.94,0,0,1,10.95,10.88,10.8,10.8,0,1,1-10.95-10.88ZM300,30.88c4.41,0,8-3.59,8-8.54s-3.55-8.5-8.19-8.5c-4,0-7.8,3.43-7.8,8.54C291.92,27.21,295.39,30.88,300,30.88Z" transform="translate(0 0)"/><path class="cls-5" d="M316.09,11.93v2.38a8.24,8.24,0,0,1,6.59-2.81c3.12,0,5.57,1.21,6.94,3.32,1.21,1.83,1.36,4.05,1.36,7.09v11h-2.65V21.13c0-4.79-1.67-7.06-6-7.06A5.84,5.84,0,0,0,317,16.92c-.9,1.56-.9,3.35-.9,5.77V32.87h-2.61V11.93Z" transform="translate(0 0)"/><path class="cls-5" d="M344.51,33.41A10.61,10.61,0,0,1,333.79,22.5a10.75,10.75,0,0,1,10.95-11,9.39,9.39,0,0,1,7.8,3.82V11.93h2.61V32.87h-2.61V29.55A9.74,9.74,0,0,1,344.51,33.41ZM344.67,14a8.31,8.31,0,0,0-8.11,8.65,8.16,8.16,0,0,0,8,8.31c4.05,0,8-3.67,8-8.66C352.54,17.7,348.68,14,344.67,14Z" transform="translate(0 0)"/><path class="cls-5" d="M359.05,5.15h2.69V32.87h-2.69Z" transform="translate(0 0)"/></svg>